# xmcd CD database file
#
# Track frame offsets:
#	150
#	25267
#	37733
#	51501
#	65467
#	69442
#	84273
#	101623
#	124348
#
# Disc length: 1849 seconds
#
# Revision: 0
# Processed by: cddbd v1.5.2PL0 Copyright (c) Steve Scherf et al.
# Submitted via: CDex 1.70beta2
#
DISCID=72073709
DTITLE=Gui Boratto - Tempo Fechado
DYEAR=1999
DGENRE=Salsa
TTITLE0=se Liga aé
TTITLE1=Suzeta
TTITLE2=Shango
TTITLE3=Avenida
TTITLE4=America
TTITLE5=Little Dreamer
TTITLE6=Tempo fechado
TTITLE7=Pedro canabis
TTITLE8=Sujera
EXTD=YEAR: 1999
EXTT0=
EXTT1=
EXTT2=
EXTT3=
EXTT4=
EXTT5=
EXTT6=
EXTT7=
EXTT8=
PLAYORDER=
